<svg xmlns="http://www.w3.org/2000/svg" viewBox="0 0 1000 750" width="1000" height="750" role="img" aria-label="FOTO PENDIENTE · Carihuairazo">
  <defs>
    <linearGradient id="sky" x1="0" y1="0" x2="0" y2="1">
      <stop offset="0" stop-color="#eef6fb"/>
      <stop offset="1" stop-color="#d5e9f5"/>
    </linearGradient>
    <linearGradient id="ground" x1="0" y1="0" x2="0" y2="1">
      <stop offset="0" stop-color="#5b8fb3"/>
      <stop offset="1" stop-color="#2c5470"/>
    </linearGradient>
  </defs>
  <rect width="1000" height="750" fill="url(#sky)"/>
  <circle cx="800" cy="150" r="56" fill="#ffffff" opacity=".55"/>
  <path d="M0 750 L0 465 L180 375 L300 434.99999999999994 L861.5 386.0 L1000 450 L1000 750 Z" fill="#9dc6e0" opacity=".75"/>
  <path d="M0 750 L0 585.0 L168.3 450.0 L400.7 271.6 L621.0 495.0 L1000 540.0 L1000 750 Z" fill="url(#ground)"/>
  <path d="M310.7 369.1 L400.7 271.6 L510.7 384.1 L445.7 346.6 L415.7 384.1 L370.7 339.1 Z" fill="#ffffff" opacity=".92"/>
  <rect x="325.4" y="60" width="349" height="42" rx="21"
        fill="#000000" opacity=".38"/>
  <text x="500" y="89" text-anchor="middle"
        font-family="Georgia, serif" font-size="20" fill="#ffffff" opacity=".9"
        letter-spacing="1">FOTO PENDIENTE · Carihuairazo</text>
</svg>