<svg xmlns="http://www.w3.org/2000/svg" viewBox="0 0 1100 800" width="1100" height="800" role="img" aria-label="FOTO PENDIENTE · Cruz del Arenal">
  <defs>
    <linearGradient id="sky" x1="0" y1="0" x2="0" y2="1">
      <stop offset="0" stop-color="#eef1f4"/>
      <stop offset="1" stop-color="#dcd7cd"/>
    </linearGradient>
    <linearGradient id="ground" x1="0" y1="0" x2="0" y2="1">
      <stop offset="0" stop-color="#8a8177"/>
      <stop offset="1" stop-color="#5d564e"/>
    </linearGradient>
  </defs>
  <rect width="1100" height="800" fill="url(#sky)"/>
  <circle cx="880" cy="160" r="60" fill="#ffffff" opacity=".55"/>
  <path d="M0 800 L0 496 L198 400 L330 463.99999999999994 L820.2 346.2 L1100 480 L1100 800 Z" fill="#b9b2a6" opacity=".75"/>
  <path d="M0 800 L0 624.0 L255.6 480.0 L608.6 227.4 L943.3 528.0 L1100 576.0 L1100 800 Z" fill="url(#ground)"/>
  <path d="M509.6 331.4 L608.6 227.4 L729.6 347.4 L658.1 307.4 L625.1 347.4 L575.6 299.4 Z" fill="#ffffff" opacity=".92"/>
  <rect x="359.2" y="64" width="382" height="42" rx="21"
        fill="#000000" opacity=".38"/>
  <text x="550" y="93" text-anchor="middle"
        font-family="Georgia, serif" font-size="20" fill="#ffffff" opacity=".9"
        letter-spacing="1">FOTO PENDIENTE · Cruz del Arenal</text>
</svg>